<svg xmlns="http://www.w3.org/2000/svg"  viewBox="0 0 64 64" width="64px" height="64px">
<path fill="#fff" d="M32,58C17.664,58,6,46.337,6,32C6,17.664,17.664,6,32,6s26,11.664,26,26 C58,46.337,46.336,58,32,58z M32,8C18.767,8,8,18.767,8,32s10.767,24,24,24s24-10.767,24-24S45.233,8,32,8z"/>
<rect width="6" height="18" x="19" y="26" fill="#fff"/>
<ellipse cx="22.5" cy="21" fill="#fff" rx="3.5" ry="3"/>
<g><path fill="#fff" d="M40,26h-0.529H39.47c-2.187,0-4,1.572-4.387,3.647H35V26h-6v18h6v-8.588v-1.529 c0.007-0.379,0.037-0.729,0.084-1.06C35.392,31.493,36.577,30.5,38,30.5c1.657,0,3,1.343,3,3v0.559v1.176V44h6v-9.118v-0.823V33 C47,29.134,43.866,26,40,26z"/></g></svg>